<svg width="20" height="20" viewBox="0 0 20 20" fill="none" xmlns="http://www.w3.org/2000/svg">
<path d="M7.19053 18.9887C7.50085 18.9887 7.75242 18.7372 7.75242 18.4269C7.75242 18.1166 7.50085 17.865 7.19053 17.865C6.8802 17.865 6.62863 18.1166 6.62863 18.4269C6.62863 18.7372 6.8802 18.9887 7.19053 18.9887Z" fill="#9098B1" stroke="#9098B1" stroke-width="2" stroke-miterlimit="10" stroke-linecap="round" stroke-linejoin="round"/>
<path d="M15.057 18.9887C15.3674 18.9887 15.6189 18.7372 15.6189 18.4269C15.6189 18.1166 15.3674 17.865 15.057 17.865C14.7467 17.865 14.4951 18.1166 14.4951 18.4269C14.4951 18.7372 14.7467 18.9887 15.057 18.9887Z" fill="#9098B1" stroke="#9098B1" stroke-width="2" stroke-miterlimit="10" stroke-linecap="round" stroke-linejoin="round"/>
<path d="M1.00969 1.00969H3.25727L5.50484 14.494H16.7427L18.9903 4.38076H4.38106" stroke="#9098B1" stroke-width="2" stroke-linecap="round" stroke-linejoin="round"/>
</svg>
