<svg width="18" height="20" viewBox="0 0 18 20" fill="none" xmlns="http://www.w3.org/2000/svg">
<path fill-rule="evenodd" clip-rule="evenodd" d="M8.78034 2C5.48466 2 2.81342 4.70004 2.81342 8.03125V13.2816C2.81342 13.3971 2.79363 13.5117 2.75492 13.6204L2.39706 14.625H15.1636L14.8057 13.6204C14.767 13.5117 14.7472 13.3971 14.7472 13.2816V8.03125C14.7472 4.70004 12.076 2 8.78034 2ZM0.834756 8.03125C0.834756 3.59547 4.39187 0 8.78034 0C13.1688 0 16.7259 3.59547 16.7259 8.03125V13.1071L17.5022 15.2862C17.6113 15.5926 17.566 15.9336 17.3808 16.2C17.1955 16.4664 16.8935 16.625 16.5713 16.625H0.989339C0.667159 16.625 0.365159 16.4664 0.179908 16.2C-0.00534314 15.9336 -0.0506386 15.5926 0.0585054 15.2862L0.834756 13.1071V8.03125Z" fill="#9098B1"/>
<path fill-rule="evenodd" clip-rule="evenodd" d="M5.44134 14.625C5.98774 14.625 6.43068 15.0727 6.43068 15.625C6.43068 16.9368 7.4825 18 8.78034 18C10.0782 18 11.13 16.9368 11.13 15.625C11.13 15.0727 11.5729 14.625 12.1193 14.625C12.6657 14.625 13.1087 15.0727 13.1087 15.625C13.1087 18.0414 11.171 20 8.78034 20C6.38971 20 4.45201 18.0414 4.45201 15.625C4.45201 15.0727 4.89495 14.625 5.44134 14.625Z" fill="#9098B1"/>
</svg>
