<svg width="16" height="16" viewBox="0 0 16 16" fill="none" xmlns="http://www.w3.org/2000/svg">
<path d="M15.8441 6.43309H15.1997V6.39989H7.99987V9.59984H12.521C11.8614 11.4626 10.089 12.7998 7.99987 12.7998C5.34911 12.7998 3.19995 10.6506 3.19995 7.99987C3.19995 5.34911 5.34911 3.19995 7.99987 3.19995C9.22345 3.19995 10.3366 3.66154 11.1842 4.41553L13.447 2.15276C12.0182 0.821186 10.107 0 7.99987 0C3.58194 0 0 3.58194 0 7.99987C0 12.4178 3.58194 15.9997 7.99987 15.9997C12.4178 15.9997 15.9997 12.4178 15.9997 7.99987C15.9997 7.46348 15.9445 6.93988 15.8441 6.43309Z" fill="#FFC107"/>
<path d="M0.921856 4.27633L3.55021 6.2039C4.2614 4.44313 5.98377 3.19995 7.99934 3.19995C9.22292 3.19995 10.3361 3.66154 11.1837 4.41553L13.4464 2.15276C12.0177 0.821186 10.1065 0 7.99934 0C4.92659 0 2.26183 1.73477 0.921856 4.27633Z" fill="#FF3D00"/>
<path d="M7.99991 16C10.0663 16 11.9438 15.2092 13.3634 13.9232L10.8875 11.8281C10.0843 12.4365 9.0859 12.8001 7.99991 12.8001C5.91915 12.8001 4.15238 11.4733 3.48679 9.62172L0.878033 11.6317C2.20201 14.2224 4.89077 16 7.99991 16Z" fill="#4CAF50"/>
<path d="M15.8441 6.43309H15.1997V6.39989H7.99983V9.59984H12.521C12.2042 10.4946 11.6286 11.2662 10.8862 11.8282C10.8866 11.8278 10.887 11.8278 10.8874 11.8274L13.3633 13.9226C13.1881 14.0818 15.9997 11.9998 15.9997 7.99986C15.9997 7.46347 15.9445 6.93988 15.8441 6.43309Z" fill="#1976D2"/>
</svg>
