<svg width="20" height="16" viewBox="0 0 20 16" fill="none" xmlns="http://www.w3.org/2000/svg">
<path fill-rule="evenodd" clip-rule="evenodd" d="M1.52588e-05 0.999998C1.52588e-05 0.447715 0.44773 0 1.00001 0H19C19.5523 0 20 0.447715 20 0.999998V14.5C20 15.0523 19.5523 15.5 19 15.5H1.00001C0.44773 15.5 1.52588e-05 15.0523 1.52588e-05 14.5V0.999998ZM2.00001 2V13.5H18V2H2.00001Z" fill="#9098B1"/>
<path fill-rule="evenodd" clip-rule="evenodd" d="M0.240754 0.349234C0.600172 -0.0700948 1.23147 -0.118663 1.6508 0.240754L10 7.39707L18.3492 0.240754C18.7685 -0.118663 19.3998 -0.0700948 19.7593 0.349234C20.1187 0.768563 20.0701 1.39986 19.6508 1.75928L10.6508 9.47339C10.2763 9.79437 9.72371 9.79437 9.34922 9.47339L0.349234 1.75928C-0.0700948 1.39986 -0.118663 0.768563 0.240754 0.349234Z" fill="#9098B1"/>
</svg>
